<?xml version="1.0" encoding="UTF-8" standalone="no"?>
<svg
   xmlns:dc="http://purl.org/dc/elements/1.1/"
   xmlns:cc="http://creativecommons.org/ns#"
   xmlns:rdf="http://www.w3.org/1999/02/22-rdf-syntax-ns#"
   xmlns:svg="http://www.w3.org/2000/svg"
   xmlns="http://www.w3.org/2000/svg"
   xmlns:sodipodi="http://sodipodi.sourceforge.net/DTD/sodipodi-0.dtd"
   xmlns:inkscape="http://www.inkscape.org/namespaces/inkscape"
   version="1.1"
   id="svg2"
   xml:space="preserve"
   width="258.66666"
   height="258.66666"
   viewBox="0 0 258.66666 258.66666"
   sodipodi:docname="wbt_it.eps"><metadata
     id="metadata8"><rdf:RDF><cc:Work
         rdf:about=""><dc:format>image/svg+xml</dc:format><dc:type
           rdf:resource="http://purl.org/dc/dcmitype/StillImage" /></cc:Work></rdf:RDF></metadata><defs
     id="defs6" /><sodipodi:namedview
     pagecolor="#ffffff"
     bordercolor="#666666"
     borderopacity="1"
     objecttolerance="10"
     gridtolerance="10"
     guidetolerance="10"
     inkscape:pageopacity="0"
     inkscape:pageshadow="2"
     inkscape:window-width="640"
     inkscape:window-height="480"
     id="namedview4" /><g
     id="g10"
     inkscape:groupmode="layer"
     inkscape:label="ink_ext_XXXXXX"
     transform="matrix(1.3333333,0,0,-1.3333333,0,258.66667)"><g
       id="g12"
       transform="scale(0.1)"><path
         d="M 2.59766,1933.23 H 1930.16 V 5.66797 H 2.59766 V 1933.23"
         style="fill:#ffffff;fill-opacity:1;fill-rule:evenodd;stroke:none"
         id="path14" /><path
         d="m 502.668,340.414 v 4.004 c 0,9.363 4.055,12.035 10.812,12.035 2.7,0 4.059,0 9.461,-1.332 v 16.043 c -2.699,1.34 -8.109,1.34 -12.164,1.34 -17.578,0 -29.746,-9.356 -29.746,-29.422 v -2.668 h -9.461 v -13.375 h 9.461 v -52.133 h 21.637 v 52.133 h 9.465 v 13.375 h -9.465"
         style="fill:#d91920;fill-opacity:1;fill-rule:evenodd;stroke:none"
         id="path16" /><path
         d="m 593.246,308.324 c 0,24.071 -21.633,33.426 -36.504,33.426 -20.277,0 -37.855,-12.031 -37.855,-33.426 0,-21.383 16.226,-34.758 37.855,-34.758 13.52,0 36.504,8.024 36.504,34.758 z m -21.633,0 c 0,-14.703 -5.406,-22.73 -14.871,-22.73 -8.113,0 -16.222,5.355 -16.222,22.73 0,14.711 6.757,21.395 16.222,21.395 9.465,0 14.871,-8.024 14.871,-21.395 v 0"
         style="fill:#d91920;fill-opacity:1;fill-rule:evenodd;stroke:none"
         id="path18" /><path
         d="m 629.746,340.414 h -20.281 v -65.508 h 20.281 v 28.071 c 5.406,12.035 9.461,20.058 17.578,20.058 2.699,0 6.758,-1.34 12.168,-5.351 l 5.399,18.722 c -5.399,4.008 -9.453,5.344 -13.512,5.344 -8.117,0 -14.871,-6.684 -21.633,-20.055 v 0 18.719"
         style="fill:#d91920;fill-opacity:1;fill-rule:evenodd;stroke:none"
         id="path20" /><path
         d="m 695.988,340.414 h -20.277 v -65.508 h 20.277 v 44.121 c 5.407,5.34 10.821,9.348 16.227,9.348 5.41,0 12.168,-4.008 12.168,-14.699 v -38.77 h 20.281 v 41.442 c 5.402,8.019 10.813,12.027 16.215,12.027 8.117,0 12.172,-5.34 12.172,-14.699 v -38.77 h 21.633 v 42.778 c 0,14.711 -10.813,24.066 -25.688,24.066 -10.816,0 -17.57,-4.012 -27.039,-13.375 -4.059,9.363 -12.168,13.375 -22.984,13.375 -4.055,0 -8.114,-1.336 -12.164,-2.676 -4.059,-1.336 -8.114,-4.008 -10.821,-6.679 v 8.019"
         style="fill:#d91920;fill-opacity:1;fill-rule:evenodd;stroke:none"
         id="path22" /><path
         d="m 881.207,290.949 c -5.41,-2.676 -6.762,-2.676 -8.113,-2.676 -2.707,0 -4.051,1.34 -4.051,4.008 v 29.414 c 0,14.711 -10.824,20.055 -27.039,20.055 -10.816,0 -20.281,-2.676 -28.395,-8.023 v -16.043 c 5.407,6.683 14.868,10.691 22.981,10.691 9.465,0 12.172,-5.34 12.172,-10.691 -27.039,-9.36 -39.203,-12.028 -39.203,-28.071 0,-8.023 8.101,-16.047 18.918,-16.047 6.761,0 13.527,2.676 21.636,8.024 1.348,-5.348 4.059,-8.024 10.817,-8.024 5.406,0 13.515,2.676 20.277,6.688 z m -32.445,0 c -4.055,-2.676 -8.11,-5.355 -12.172,-5.355 -2.703,0 -5.402,4.019 -5.402,8.027 0,5.352 5.402,9.356 17.574,13.371 v -16.043"
         style="fill:#d91920;fill-opacity:1;fill-rule:evenodd;stroke:none"
         id="path24" /><path
         d="m 887.965,340.414 v -13.375 h 31.09 l -33.793,-52.133 h 67.597 v 14.707 h -33.804 l 33.804,50.801 h -64.894"
         style="fill:#d91920;fill-opacity:1;fill-rule:evenodd;stroke:none"
         id="path26" /><path
         d="M 988,340.414 H 967.73 V 274.906 H 988 Z m -9.449,32.09 c -6.766,0 -12.172,-4.016 -12.172,-10.707 0,-6.676 5.406,-12.02 12.172,-12.02 5.398,0 10.812,5.344 10.812,12.02 0,6.691 -5.414,10.707 -10.812,10.707 v 0"
         style="fill:#d91920;fill-opacity:1;fill-rule:evenodd;stroke:none"
         id="path28" /><path
         d="m 1078.59,308.324 c 0,24.071 -20.28,33.426 -36.51,33.426 -18.92,0 -37.85,-12.031 -37.85,-33.426 0,-21.383 16.23,-34.758 37.85,-34.758 14.88,0 36.51,8.024 36.51,34.758 z m -21.63,0 c 0,-14.703 -5.41,-22.73 -14.88,-22.73 -8.1,0 -14.87,5.355 -14.87,22.73 0,14.711 5.41,21.395 14.87,21.395 10.82,0 14.88,-8.024 14.88,-21.395 v 0"
         style="fill:#d91920;fill-opacity:1;fill-rule:evenodd;stroke:none"
         id="path30" /><path
         d="m 1115.09,340.414 h -20.28 v -65.508 h 20.28 v 42.778 c 5.41,8.027 9.47,10.691 14.87,10.691 5.41,0 9.47,-4.008 9.47,-13.363 l 1.35,-40.106 h 20.27 v 41.442 c 0,20.058 -13.51,25.402 -24.33,25.402 -8.11,0 -14.87,-2.676 -21.63,-10.695 v 9.359"
         style="fill:#d91920;fill-opacity:1;fill-rule:evenodd;stroke:none"
         id="path32" /><path
         d="m 1243.52,294.957 c -9.46,-6.684 -16.22,-9.363 -24.33,-9.363 -12.17,0 -20.28,8.027 -21.63,18.722 h 47.32 c 1.35,24.059 -14.87,37.434 -33.8,37.434 -20.28,0 -35.15,-14.711 -35.15,-33.426 0,-21.383 16.23,-34.758 39.2,-34.758 4.06,0 17.58,0 28.39,9.36 z m -44.61,20.055 c 0,9.355 5.41,14.707 13.52,14.707 8.11,0 13.52,-5.352 14.87,-14.707 h -28.39"
         style="fill:#d91920;fill-opacity:1;fill-rule:evenodd;stroke:none"
         id="path34" /><path
         d="m 1323.29,340.414 h -20.28 v -65.508 h 20.28 z m -10.81,32.09 c -5.41,0 -10.83,-4.016 -10.83,-10.707 0,-6.676 5.42,-12.02 10.83,-12.02 6.76,0 12.16,5.344 12.16,12.02 0,6.691 -5.4,10.707 -12.16,10.707 v 0"
         style="fill:#d91920;fill-opacity:1;fill-rule:evenodd;stroke:none"
         id="path36" /><path
         d="m 1363.84,340.414 h -21.63 v -65.508 h 21.63 v 42.778 c 5.41,8.027 8.12,10.691 13.52,10.691 6.77,0 10.82,-4.008 10.82,-13.363 v -40.106 h 20.28 v 41.442 c 0,20.058 -13.51,25.402 -24.33,25.402 -8.12,0 -14.88,-2.676 -20.29,-10.695 v 9.359"
         style="fill:#d91920;fill-opacity:1;fill-rule:evenodd;stroke:none"
         id="path38" /><path
         d="m 1490.93,340.414 h -21.63 v -65.508 h 21.63 v 28.071 c 4.05,12.035 9.46,20.058 16.23,20.058 4.05,0 6.75,-1.34 12.16,-5.351 l 6.76,18.722 c -6.76,4.008 -9.47,5.344 -14.87,5.344 -6.76,0 -14.88,-6.684 -20.28,-20.055 v 0 18.719"
         style="fill:#d91920;fill-opacity:1;fill-rule:evenodd;stroke:none"
         id="path40" /><path
         d="m 1596.38,294.957 c -9.46,-6.684 -16.22,-9.363 -24.34,-9.363 -13.52,0 -20.27,8.027 -21.63,18.722 h 47.32 c 1.36,24.059 -14.87,37.434 -33.8,37.434 -20.28,0 -35.15,-14.711 -35.15,-33.426 0,-21.383 14.87,-34.758 37.86,-34.758 5.4,0 17.57,0 29.74,9.36 z m -45.97,20.055 c 1.36,9.355 6.77,14.707 14.88,14.707 8.1,0 13.51,-5.352 13.51,-14.707 h -28.39"
         style="fill:#d91920;fill-opacity:1;fill-rule:evenodd;stroke:none"
         id="path42" /><path
         d="m 1659.92,340.414 h -22.98 v 20.059 h -2.71 l -28.39,-29.418 v -4.016 h 9.47 v -28.066 c 0,-18.719 12.16,-25.407 25.68,-25.407 6.76,0 12.17,1.34 18.93,4.008 v 16.047 c -5.41,-4.008 -9.46,-4.008 -13.52,-4.008 -6.76,0 -10.82,4.008 -10.82,9.36 l 1.36,28.066 h 22.98 v 13.375"
         style="fill:#d91920;fill-opacity:1;fill-rule:evenodd;stroke:none"
         id="path44" /><path
         d="m 1736.98,294.957 c -9.46,-6.684 -16.23,-9.363 -24.34,-9.363 -13.51,0 -21.63,8.027 -21.63,18.722 h 47.32 c 1.35,24.059 -14.87,37.434 -33.79,37.434 -20.29,0 -35.16,-14.711 -35.16,-33.426 0,-21.383 14.87,-34.758 37.85,-34.758 5.41,0 17.58,0 29.75,9.36 z m -45.97,20.055 c 1.35,9.355 6.76,14.707 14.87,14.707 8.12,0 13.53,-5.352 13.53,-14.707 h -28.4"
         style="fill:#d91920;fill-opacity:1;fill-rule:evenodd;stroke:none"
         id="path46" /><g
         id="g48"
         transform="scale(1.00557,0.994427)"><path
           d="m 505.258,1674.66 c 0,0 41.678,-328.04 177.468,-467.86 133.095,-137.14 453.074,-189.57 453.074,-189.57 m -790.529,497.45 c 0,0 116.965,-268.89 244.687,-400.65 C 714.988,983.614 977.16,857.242 977.16,857.242 M 194.692,1364.1 c 0,0 190.905,-227.21 317.287,-353.59 C 638.357,884.13 838.682,720.107 838.682,720.107"
           style="fill:none;stroke:#d91920;stroke-width:72.8591;stroke-linecap:butt;stroke-linejoin:miter;stroke-miterlimit:2.6131;stroke-dasharray:none;stroke-opacity:1"
           id="path50" /></g><g
         id="g52"
         transform="scale(1.00557,0.994427)"><path
           d="m 819.857,1673.32 c 0,0 -41.674,-326.7 -177.468,-466.52 C 509.295,1069.66 189.312,1017.23 189.312,1017.23 m 790.54,497.45 c 0,0 -116.969,-268.89 -243.355,-400.65 C 610.119,983.614 349.303,857.242 349.303,857.242 M 1130.42,1364.1 c 0,0 -190.902,-228.56 -317.291,-353.59 C 686.755,884.13 486.438,720.107 486.438,720.107"
           style="fill:none;stroke:#d91920;stroke-width:72.8591;stroke-linecap:butt;stroke-linejoin:miter;stroke-miterlimit:2.6131;stroke-dasharray:none;stroke-opacity:1"
           id="path54" /></g><path
         d="m 664.891,561.004 58.14,-122.988 h 33.797 L 859.574,669.301 H 786.566 L 737.898,543.633 686.531,669.301 H 643.262 L 591.891,543.633 544.574,669.301 H 470.215 L 574.316,438.016 h 33.797 l 56.778,122.988"
         style="fill:#d91920;fill-opacity:1;fill-rule:evenodd;stroke:none"
         id="path56" /><path
         d="M 946.098,777.59 H 873.094 V 442.02 h 73.004 v 17.382 c 18.929,-13.367 40.558,-21.386 63.542,-21.386 62.19,0 106.81,48.125 106.81,118.988 0,68.18 -45.97,116.312 -112.22,116.312 -21.625,0 -35.148,-4.015 -58.132,-17.382 z m 0,-167.113 c 16.222,12.035 27.039,14.707 41.902,14.707 29.75,0 55.44,-20.055 55.44,-68.18 0,-45.457 -21.63,-70.863 -55.44,-70.863 -13.508,0 -27.031,5.351 -41.902,18.722 v 105.614"
         style="fill:#d91920;fill-opacity:1;fill-rule:evenodd;stroke:none"
         id="path58" /><path
         d="m 1313.82,669.301 h -82.46 v 70.859 h -9.47 l -95.98,-105.617 v -14.707 h 32.44 v -96.262 c 0,-64.172 41.92,-85.558 89.22,-85.558 23,0 41.92,4.004 66.25,14.699 v 50.808 c -18.92,-9.359 -32.44,-13.371 -47.32,-13.371 -22.98,0 -35.14,14.711 -35.14,37.438 v 92.246 h 82.46 v 49.465"
         style="fill:#d91920;fill-opacity:1;fill-rule:evenodd;stroke:none"
         id="path60" /><path
         d="m 1374.66,523.574 c -24.33,0 -43.26,-18.711 -43.26,-42.781 0,-24.07 18.93,-42.777 43.26,-42.777 24.33,0 43.27,18.707 43.27,42.777 0,24.07 -18.94,42.781 -43.27,42.781"
         style="fill:#d91920;fill-opacity:1;fill-rule:evenodd;stroke:none"
         id="path62" /><path
         d="m 1459.84,442.02 h 71.64 v 227.281 h -71.64 z m 35.14,339.585 c -21.62,0 -39.2,-17.378 -39.2,-38.769 0,-21.387 17.58,-38.773 39.2,-38.773 21.63,0 39.21,17.386 39.21,38.773 0,21.391 -17.58,38.769 -39.21,38.769"
         style="fill:#d91920;fill-opacity:1;fill-rule:evenodd;stroke:none"
         id="path64" /><path
         d="m 1742.39,669.301 h -82.47 v 70.859 h -9.46 l -95.99,-105.617 v -14.707 h 32.45 v -96.262 c 0,-64.172 41.9,-85.558 89.22,-85.558 22.99,0 40.56,4.004 66.25,14.699 v 50.808 c -18.93,-9.359 -32.45,-13.371 -47.32,-13.371 -22.98,0 -36.5,14.711 -36.5,37.438 l 1.35,92.246 h 82.47 v 49.465"
         style="fill:#d91920;fill-opacity:1;fill-rule:evenodd;stroke:none"
         id="path66" /></g></g></svg>
